<?xml version="1.0" standalone="no"?>
<!DOCTYPE svg PUBLIC "-//W3C//DTD SVG 20010904//EN"
 "http://www.w3.org/TR/2001/REC-SVG-20010904/DTD/svg10.dtd">
<svg version="1.0" xmlns="http://www.w3.org/2000/svg"
 width="700.000000pt" height="700.000000pt" viewBox="0 0 700.000000 700.000000"
 preserveAspectRatio="xMidYMid meet">
<metadata>
Created by potrace 1.11, written by Peter Selinger 2001-2013
</metadata>
<g transform="translate(0.000000,700.000000) scale(0.100000,-0.100000)"
fill="#000000" stroke="none">
<path d="M0 3500 l0 -3500 3500 0 3500 0 0 3500 0 3500 -3500 0 -3500 0 0
-3500z m2198 3192 c18 -18 18 -25 6 -113 -37 -263 -48 -448 -48 -799 0 -359 6
-462 45 -770 17 -134 47 -320 65 -399 4 -20 17 -6 85 95 243 356 591 742 829
919 444 330 1152 733 1234 702 42 -16 9 -46 -261 -237 -595 -420 -847 -624
-1099 -892 -194 -207 -336 -430 -399 -628 -38 -117 -44 -265 -17 -367 39 -145
140 -278 322 -423 192 -153 533 -324 1160 -580 381 -156 613 -271 687 -339 37
-34 45 -88 17 -115 -68 -68 -857 99 -1339 283 -255 98 -530 237 -685 346 -41
29 -127 98 -190 154 -63 55 -121 101 -129 101 -11 0 -12 -13 -7 -62 8 -65 117
-561 234 -1063 l68 -289 90 -13 c519 -71 836 -376 811 -783 -17 -281 -192
-533 -453 -651 -95 -43 -185 -62 -304 -62 -143 -1 -235 21 -418 100 -125 54
-169 79 -183 104 -9 18 -7 18 43 -2 352 -141 629 -153 867 -38 214 104 353
334 354 585 0 113 -15 177 -63 279 -101 213 -322 327 -597 309 -57 -4 -103 -9
-103 -13 0 -3 27 -109 61 -236 93 -353 108 -475 60 -475 -28 0 -65 33 -120
110 -93 128 -219 348 -276 483 -15 37 -30 67 -32 67 -2 0 -46 -20 -97 -44
-242 -113 -403 -258 -499 -451 -45 -90 -61 -160 -60 -260 3 -235 166 -437 443
-549 214 -87 544 -129 845 -106 590 43 1151 270 1673 677 260 203 505 509 648
808 102 214 139 364 138 555 -1 363 -180 639 -519 800 -198 94 -470 146 -970
185 -447 35 -687 94 -871 214 -173 113 -280 237 -332 384 -31 90 -35 235 -9
337 70 268 334 579 677 797 211 134 494 235 739 263 373 44 687 -127 792 -430
33 -97 38 -238 10 -328 -55 -181 -212 -307 -391 -315 -88 -3 -88 -4 63 274 62
113 87 189 87 261 0 96 -40 148 -147 188 -73 28 -276 43 -379 29 -393 -54
-923 -403 -1064 -700 -57 -121 -35 -253 56 -342 101 -99 343 -173 679 -208
130 -13 322 -48 466 -84 823 -207 1297 -614 1385 -1187 69 -451 -147 -1004
-571 -1457 -406 -435 -866 -712 -1433 -865 -702 -189 -1415 -178 -1833 29
-115 56 -171 96 -249 175 -149 151 -212 341 -189 577 10 114 44 222 114 368
136 281 293 419 618 541 115 43 127 50 121 68 -4 12 -54 194 -111 406 -378
1401 -505 2113 -503 2830 0 349 21 574 76 829 22 104 23 116 9 137 -42 65
-126 48 -536 -109 -153 -59 -212 -74 -254 -63 -58 15 -7 66 115 114 86 34 358
158 600 272 243 115 308 132 348 92z m647 -487 c125 -33 212 -100 262 -203 23
-49 27 -70 27 -142 0 -73 -4 -92 -27 -137 -59 -113 -217 -182 -425 -185 -160
-2 -259 40 -343 145 -64 80 -82 127 -77 206 11 191 194 328 443 330 45 1 108
-6 140 -14z"/>
</g>
</svg>
