<svg xmlns="http://www.w3.org/2000/svg" version="1" viewBox="0 0 512 512">
  <path style="animation:drawon 5000ms linear 0ms infinite,fade 5000ms linear 0ms infinite" fill="none" stroke="#2b5797" stroke-dasharray="4568 4570" stroke-dashoffset="4569" stroke-width="4" d="M118 416c14-45 35-53 62-62-25-93-62-213-38-307-2-15-43 10-57 11-8-1-3-6 12-11l35-16c21-11 28-12 30-7a436 436 0 0 0 4 153c16-26 40-54 62-73 26-20 101-67 96-52-41 30-89 59-118 101-22 35-20 60 11 83 11 10 41 24 72 37 41 16 65 28 65 33 1 8-3 8-27 4-57-10-112-32-137-57-13-11-13-17 2 50l11 47c115 11 62 145-22 102-8-3-12-6-12-8 103 46 122-79 51-82l-14 1 6 23c19 67-20 3-28-19-63 24-67 87 2 101 58 11 123-9 176-55 39-38 68-94 32-135-17-17-36-24-80-28-37-2-56-6-71-13-77-43 2-118 54-130 87-26 102 73 46 75-12-2 51-58-20-56-35 2-85 39-85 61 0 19 18 28 65 32 193 31 140 186 21 247-79 38-223 40-206-50zm64-311c-9-4-17-15-17-22 0-20 26-32 49-23 14 6 20 23 12 36-8 10-30 14-44 9z"/>
  <style>
    @keyframes fade{0%,95%{stroke-opacity:1}}
    @keyframes drawon{5%{stroke-dashoffset:4569}85%{stroke-dashoffset:0}}
  </style>
</svg>
