<svg xmlns="http://www.w3.org/2000/svg" width="625" height="189" version="1">
  <path d="m398 186c-5.51-7.74-26.6-20.2-43.9-25.9-27.8-9.24-51.8-12-105-12-37.5-.0142-52.2.782-79 4.28-38.2 4.97-63 2.03-87.7-10.4-23.2-11.7-42-27.8-44.3-38-.649-2.95-.969-2.48-5.08 7.55-2.59 6.31-4.39 12.3-4.39 14.6 0 2.13-.273 4.59-.607 5.46-1.02 2.66-5.97 1.9-9.86-1.52-3.34-2.93-3.53-3.45-3.53-9.35 0-8.46 7.67-34.3 18.9-63.5 2.46-6.43 2.45-6.33.95-5.4-4.29 2.65-25.4 4.31-31.8 2.51-2.54-.707-3.88-3.64-2.35-5.15.464-.458 5.26-1.54 10.6-2.4 10.3-1.66 16.3-4.11 24.8-10.2 6.62-4.75 12.9-14.2 12.9-19.4 0-1.09.629-2.23 1.4-2.52 2-.767 11 4.04 13.5 7.2 3.13 3.98 2.83 11-.785 18.2-1.59 3.15-4.93 10.7-7.42 16.7-2.5 6.05-5.47 13.2-6.61 15.8l-2.07 4.81 8.74-7.98c4.81-4.39 12.5-10.8 17.2-14.3 17.5-13.1 32.1-29 37.1-40.2 1.45-3.27 2.63-4.62 4.04-4.62 3.01 0 7.35 2.55 10.3 6.04 2.22 2.64 2.62 4.07 2.62 9.43 0 5.87-.302 6.72-4.33 12.2-5.11 6.94-16.6 16.7-29.2 24.7-4.95 3.17-11.9 7.64-15.5 9.93-15.1 9.68-21.4 15.7-24.6 23.3-1.38 3.3-1.37 4.06.108 7.93 2.56 6.71 13 15.8 26.5 23.1 15.2 8.17 24.3 11.1 41.3 13 12.8 1.46 15.2 1.45 31.5-.11 9.7-.931 21.9-2.35 27.1-3.15 39.8-6.12 49.6-7.39 56.9-7.4l6.36-.008-3.05-2.85c-1.68-1.57-3.35-4.07-3.73-5.55-.747-2.98-.123-11 1.1-14.1.43-1.1-3.92 2.84-9.66 8.75l-10.4 10.8h-5.68c-6.39 0-9.15-1.93-10.3-7.24l-.653-2.97-4.15 3.99c-5.62 5.4-7.53 6.22-14.5 6.22-5.28 0-6.24-.312-8.07-2.63-1.67-2.12-2.07-4.06-2.07-9.92 0-8.49 3.45-19.4 10.7-33.8l4.47-8.89-3.83.633c-2.11.348-4.36.638-5 .644-.645.006-1.71 1.7-2.37 3.76-1.62 5.07-8.48 18.7-11.9 23.7-4.2 6.09-19.7 22.2-24.6 25.6-4.91 3.38-12.4 4.05-16.1 1.45-4.05-2.84-5.31-12.6-2.62-20.3.334-.956-4.08 3.1-9.82 9.01l-10.4 10.8h-5.54c-4.6 0-5.94-.42-7.86-2.47-4.64-4.94-3.58-16.8 2.74-30.5 1.39-3.03 5.09-12.3 8.23-20.5 6.83-18 7.22-18.2 15.4-10.3 7.92 7.69 7.97 8.7 1.12 22.6-3.16 6.43-6.82 14.2-8.14 17.2l-2.39 5.5 4.66-5c2.56-2.75 7.03-7.93 9.93-11.5 2.9-3.58 7.63-9.34 10.5-12.8 3.35-4.03 6.01-8.55 7.37-12.5 1.83-5.34 2.5-6.24 4.82-6.51 2.11-.246 3.76.751 7.6 4.59 7.26 7.26 7.32 8.89.744 22-3.03 6.04-7.35 15.4-9.6 20.8l-4.1 9.87 7.08-7c9.2-9.09 21.2-26.6 23.4-34.1.551-1.86.113-2.2-3.62-2.8-6.02-.963-7.8-2.92-7.8-8.59 0-8.73 7.73-15.9 17.1-16 5.78-.0206 7.08 1.43 7.67 8.57.375 4.52.74 5.38 2.1 4.94 4.8-1.52 13.4-3.53 15.2-3.53 2.48 0 10.5 5.37 11.9 7.97 1.86 3.47 1.07 5.91-6.45 20-4.1 7.67-8.83 17-10.5 20.6l-3.03 6.69 7.21-6.48c8.02-7.2 10.5-11.8 19.8-36.8 5.64-15.1 6.22-15.4 14.3-7.8 7.96 7.57 8.01 8.49 1.2 22.5-9.31 19.2-10.8 22.8-8.98 21.3 1.85-1.53 18.7-21.5 25.3-30 2.65-3.4 4.93-7.76 5.91-11.3 1.48-5.3 1.83-5.75 4.49-5.75 2.11 0 4.17 1.29 7.72 4.84 7.41 7.41 7.37 8.21-1.33 26.2-4.11 8.5-8.39 17.9-9.53 20.9l-2.06 5.48 7.03-7.03c6.74-6.74 7.34-7.76 14.6-24.5 4.16-9.6 8.36-19.3 9.33-21.5l1.76-4.03-2.62.0293c-2.49.0279-2.63-.255-2.92-5.67-.486-9.28 5.23-17.4 13.5-19.2 2.54-.559 3.42-1.44 4.36-4.38 2.24-6.98 8.09-17.7 11.7-21.4 9.16-9.47 29.4-10.4 37.7-1.75 2.04 2.13 2.91 4.22 3.26 7.81.668 6.96-2.19 12.9-8.65 18-4.84 3.82-16.8 9.14-23.9 10.7-2.82.599-3.77 1.66-6.75 7.59-1.91 3.79-3.47 7.05-3.47 7.24 0 .193 2.26-.111 5.02-.677 8.55-1.75 18.2 2.01 21.5 8.4.817 1.58 1.48 5.37 1.48 8.42 0 4.97-.376 5.96-3.62 9.56-3.7 4.1-11.7 8.48-21.1 11.5-4.63 1.5-5.25 2.02-5.25 4.43 0 6.22 4.4 16 7.19 16 .486 0 5.56-4.28 11.3-9.5 6.21-5.67 11.2-9.5 12.5-9.5 2.36 0 9.03-2.58 9.03-3.49 0-.325-.999-1.94-2.22-3.59-3.33-4.51-3.65-14.6-.716-22.4 3.08-8.2 10.7-15.8 18-17.9 5.24-1.56 19.3-2.17 22.4-.976 3.18 1.22 1.78 5.08-3.17 8.74-6.77 5.01-13.7 12.5-16.3 17.5-2.31 4.5-2.3 8.24.0453 19.2.53 2.48 1.23 6.7 1.56 9.39l.598 4.89 2.32-6.64c6.64-19 26.8-41.6 37-41.6 2.07 0 5.05 1.37 8.74 4.01 3.08 2.2 5.8 3.67 6.05 3.25.246-.417.761-2.22 1.14-4.01.593-2.77 1.13-3.25 3.62-3.25 2.14 0 4.27 1.3 7.92 4.82 6.98 6.73 6.84 8.1-2.89 28.9-10.8 23.1-10.9 23.3-1.47 14 5.68-5.62 9.77-8.69 14.7-11l6.84-3.21-2.03-2.58c-9.71-12.3.318-36.5 17.2-41.4 7.72-2.24 21.5-1.74 23.1.843.947 1.59.39 2.45-3.89 6-8.46 7.03-15 14.2-17 18.6-1.85 4.09-1.85 4.6-.208 15.9 2.99 20.5 2.12 28.5-3.76 34.3-4.48 4.38-8.47 5.73-17.2 5.83-7.53.0804-13.3-1.62-17-5.05-2.08-1.92-2.14-1.91-6.5.584-6 3.43-13 3.49-16.4.153-3.09-3.09-4.06-8.51-2.77-15.5.566-3.08.966-5.65.89-5.72-.0766-.0689-4.63 4.77-10.1 10.8-9.4 10.2-10.2 10.9-13.8 10.9-7.9 0-14.5-5.59-14.8-12.5-.117-2.95-.129-2.95-.825.5-2.22 11-9.4 15.9-23.5 16.1-7.88.0876-7.16.557 5.27 3.42 4.05.932 12 3.63 17.7 5.98 30.9 12.8 46.2 30 39.9 45.1-1.78 4.27-3.75 4.4-6.58.429zm4.96-7.75c.0967-5.9-2.7-10.9-9.89-17.5-14.6-13.5-40.6-24.1-70-28.4-9.15-1.35-18.8-1.69-47-1.68-37.9.0161-41.7.297-78.5 5.86-56 8.46-77.8 8.66-101 .926-11.5-3.8-28.6-13.7-36.6-21.2-11-10.3-12.6-18.4-5.5-28 3.87-5.27 14.1-13.5 25.1-20.2 30.8-18.7 45.5-32.6 45.5-42.8 0-3.7-3.6-9.06-7.68-11.4l-3.18-1.86-2.06 4.67c-5.12 11.6-18.4 25.8-38.2 41.2-16.6 12.8-26.2 22.4-29.8 29.5-3.56 7.12-4.02 13.9-1.32 19.6 5.25 11.1 30.8 29.2 52.8 37.5 13.9 5.22 22.1 6.8 38.5 7.36 12.4.424 18.4.121 30-1.51 28.5-4 41.1-4.69 86-4.66 45.8.029 53.1.502 77.7 5.06 17.9 3.32 31.8 7.61 44.1 13.6 11.2 5.44 25 15.1 27.8 19.4 1.6 2.44 1.81 2.5 2.48.791.404-1.03.767-3.8.806-6.16zm-370-72.2c10.9-27.3 26.7-65.5 29.1-70.2 2.94-5.8 3.01-8.73.295-12.2-1.71-2.17-8.58-6.61-10.2-6.61-.227 0-.685 1.69-1.02 3.75-2.25 13.9-25 29-43.9 29.2-2.06.0193-3.75.485-3.75 1.04 0 1.89 19.9 1.18 27.8-1 3.97-1.1 7.45-2 7.73-2 1.29 0 .0627 4.34-5.91 20.8-7.34 20.2-12.8 37.9-14.6 47-1.47 7.51-.592 10.2 4.27 13.2l3.27 1.99.603-5.25c.332-2.89 3.21-11.8 6.39-19.7zm299 23.6c-1.5-.665-4.1-2.52-5.77-4.12-2.99-2.87-3.09-2.89-5.93-1.21-4.46 2.64-14.9 2.33-19.2-.572-4.18-2.8-9.5-10.5-11-15.9-.594-2.2-1.26-3.82-1.49-3.6-.225.225-2.34 5.11-4.7 10.9l-4.29 10.4-4.31.311c-3.85.278-4.68-.0774-7.76-3.35l-3.45-3.66-3.81 3.35c-2.09 1.84-4.67 3.85-5.73 4.46-1.45.843 6.5 1.25 32.6 1.69 19 .315 36.1 1 38 1.53 1.92.528 4.85.97 6.5.982l3 .0211-2.73-1.21zm22.7-3.96c8.43-4.56 10.1-13.4 6.57-33.9-2.07-11.9-1.74-15.2 2.14-21.3 2.56-4.03 10.9-12.3 16.2-16.1 5.67-4.05.257-5.54-11.9-3.29-7.52 1.39-12.3 3.86-16.3 8.36-8.46 9.64-10.2 22.6-4.08 30.4 3.03 3.85 2.39 5.58-2.99 8.1-2.69 1.26-5.39 1.99-6 1.61-.62-.383-5.68 3.5-11.6 8.88-8.29 7.58-11.1 9.56-13.4 9.56-5.03 0-8.35-5.83-9.46-16.7-.621-6.01-.336-6.36 7.35-8.83 18.5-5.95 26.1-14.6 21.4-24.2-3.56-7.26-14.3-10.4-23-6.8-6.86 2.87-6.96 1.68-.897-10.4l4.45-8.86 10-3.22c17-5.46 25.1-12.7 25.1-22.5 0-4.35-.434-5.57-2.75-7.72-3.72-3.45-8.29-4.82-16.1-4.82-13.4 0-21.8 7.94-28.1 26.4-1.5 4.4-2.14 5.1-5.88 6.34-7.86 2.62-14.1 11.4-13 18.3.249 1.56.995 1.03 3.81-2.75 6.22-8.34 9.69-8.69 6.25-.627-1.12 2.63-6.29 14.5-11.5 26.3s-9.77 22.5-10.1 23.6c-1.03 3.25-16.1 17.4-18.5 17.4-1.19 0-2.11-.64-2.11-1.46 0-2.26 3.46-10.6 11.6-27.9 8.42-17.9 8.47-18.7 1.71-24.6-4.37-3.84-6.01-3.78-6.88.255-1.36 6.32-2.81 8.45-18.9 27.8-11 13.2-15.7 18-17.8 18-3.17 0-2.03-3.82 6.31-21.2 5.86-12.2 7.93-17.5 7.5-19.2-.702-2.8-9.6-11-10.7-9.83-.421.428-2.76 6.18-5.2 12.8-2.44 6.6-6.22 15.8-8.41 20.5-3.49 7.44-5.05 9.46-12.5 16.3-4.71 4.26-9.05 7.75-9.65 7.75-3.54 0 2.65-15.2 15.5-38.1 5.33-9.5 5.54-10.1 4.09-12.4-.843-1.29-3.2-3.37-5.23-4.63-3.48-2.15-4.04-2.21-9.3-1.03-3.08.694-7.81 1.51-10.5 1.82l-4.9.555.556-3.43c.306-1.89.316-4.68.0231-6.22-1.66-8.69-17.9-2.25-19.8 7.86-.617 3.29-.391 4.12 1.53 5.68 1.42 1.15 3.88 1.83 6.64 1.83 3.89 0 4.39.257 4.38 2.25-.0296 6.82-14.4 29.1-25.9 40-14.8 14.1-14.8 9.86.01-21.6 4.34-9.23 7.89-17.4 7.89-18.2 0-2.05-8.31-10.5-10.3-10.5-.921 0-1.68.785-1.68 1.75-.0224 4.01-5.43 12.5-16 25.2-14.2 17.1-19 22-21.2 22-3.15 0-2.05-3.74 6.29-21.2 5.61-11.8 7.91-17.7 7.52-19.2-.709-2.82-9.51-11.1-10.6-9.9-.433.471-3.04 6.71-5.79 13.9-2.75 7.15-6.7 17-8.77 22-2.63 6.27-3.91 11-4.25 15.7-.441 6.17-.28 6.88 2.11 9.26 5.58 5.58 9.77 3.12 26.1-15.3 5.57-6.27 9.32-9.73 9.91-9.15.582.582.12 3.42-1.22 7.5-2.54 7.75-2.79 15.2-.599 18.3 2.42 3.45 9.93 3.12 15-.665 13.8-10.2 30.2-32.6 34.5-46.9.693-2.34 1.75-4.66 2.35-5.14 1.43-1.15 15.6-2.53 15.6-1.52 0 .43-2.2 5.09-4.9 10.4-9.12 17.8-13.3 32.8-11.1 39.5 1.34 4.06 3.5 5.57 8.01 5.57 4.22 0 7.68-1.98 13-7.42 5.54-5.7 8.04-6.02 8.04-1.03 0 4.48 3.67 8.45 7.81 8.45 3.69 0 9.11-4.71 20.6-17.9 10.4-12 12.5-12.4 8.84-1.82-1.83 5.26-2.37 8.53-2.05 12.4.574 6.92 1.9 8.35 7.75 8.35 4.96 0 9.6-2.57 15-8.32 3.28-3.48 4.52-3.36 5.63.527.985 3.43 6.36 7.39 8.77 6.47.755-.29 2.17-2.7 3.14-5.35 4.29-11.7 8.8-21.3 10-21.3.812 0 1.58 1.83 2 4.75 1.37 9.5 5.94 16.9 12.5 20.3 6.12 3.12 10.2 2.65 17.6-2.02 1.97-1.24 2.4-1.08 4.86 1.85 4.64 5.51 9.83 7.34 18.5 6.52 3.02-.289 7.3-1.5 9.5-2.69zm-20.8-8.24c-3.43-1.86-3.49-4.39-.21-8.29 2.64-3.13 13.5-9.13 16.5-9.13 5.19 0 3.44 13.4-2.27 17.4-2.81 1.97-10.4 1.96-14-.0113zm14-4.08c2.23-2.44 2.68-3.98 2.27-7.85-.304-2.86-.397-2.87-5.18-.742-5.2 2.31-10.8 6.89-10.8 8.8 0 1.69 5.59 3.39 9 2.73 1.38-.266 3.51-1.59 4.75-2.94zm-55.8-25.1c0-.399 1.2-3.79 2.67-7.53 2.44-6.22 3.17-7.11 8.38-10.3 9.57-5.81 14.9-5.64 14.9.499 0 1.87-1.32 4.03-4.25 6.93-6.13 6.07-21.8 13.5-21.8 10.4zm12.5-6.91c5.22-3.11 7.76-5.31 9.88-8.54 3.3-5.04-1.86-4.97-10.2.142-3.7 2.28-5.11 3.92-6.45 7.53l-1.71 4.62 2.22-.687c1.22-.378 4.02-1.76 6.22-3.07zm-137-17c-2.5-2.5 1.59-11.2 4.71-10 1.66.638 2.25 5.9 1.02 9.11-.604 1.57-4.45 2.19-5.73.915zm4.23-6.33c.0192-.825-.585-.381-1.34.987s-1.11 2.91-.792 3.43c.631 1.02 2.08-1.97 2.13-4.42zm146-27c0-2.28 7.17-15.9 9.89-18.9 4.66-4.99 10.1-3.83 10.1 2.15 0 5.29-1.34 6.91-11.4 13.7-5.83 3.97-8.64 4.94-8.64 2.97zm16.9-14.1c.688-1.88.618-3.16-.238-4.33-1.12-1.54-1.37-1.52-3.4.169-1.2 1.01-3.92 5.01-6.04 8.91l-3.85 7.08 6.28-4.58c3.45-2.52 6.71-5.78 7.25-7.25zm123 109c2.71-1.28 4.88-3.34 6.49-6.17 2.09-3.67 2.4-5.41 2.26-12.7-.0902-4.68-.873-11.8-1.74-15.8-2.08-9.66-1.99-12.4.568-17.5 3.36-6.59 6.75-10.5 14.1-16.4 3.81-3.04 6.51-5.9 6.14-6.5-.769-1.24-13.7-.411-19.7 1.27-5.02 1.39-12.1 8.03-15.4 14.4-3.8 7.32-3.78 16.6.0415 22.3 1.51 2.29 2.75 4.73 2.75 5.43s-3.42 2.81-7.61 4.69c-6.31 2.84-9.07 4.92-16.2 12.3-8.02 8.22-12.2 10.8-12.2 7.45 0-2.46 4.65-13.8 12-29.1 4.75-9.97 6.96-15.7 6.6-17.2-.656-2.61-9.6-10.7-10.6-9.63-.389.428-1.25 2.47-1.91 4.53-.659 2.06-1.77 3.75-2.46 3.75s-3.77-1.8-6.85-4c-3.37-2.41-6.71-4-8.41-4-6.06.009-16.3 9.37-26 23.8-8.49 12.6-12.5 26.4-9.32 32.3 1.4 2.63 6.18 4.94 10.2 4.94 2.96 0 4.53-1.33 14.8-12.5 6.32-6.9 11.6-13 11.8-13.5.498-1.43 3.17-1.16 3.17.327 0 .707-.9 3.85-2 6.98-2.41 6.87-2.62 15.4-.443 18.5 1.23 1.76 2.53 2.22 6.25 2.22 4.37-.003 6.42-.862 12.3-5.14 1.34-.974 2.24-.557 5.22 2.42 5.87 5.87 17 6.99 26.2 2.64zm-20.3-8.4c-3.07-2.22-2.87-6.03.5-9.2 3.41-3.21 14.8-8.7 16.6-8 1.56.598 2.65 6.12 1.95 9.82-.269 1.41-1.51 3.83-2.75 5.39-1.93 2.42-3.12 2.89-8.16 3.23-4.35.29-6.5-.0347-8.15-1.23zm11.5-1.5c1.97-.0212 5.23-6.15 5.23-9.83.003-2.98-.225-3.25-2.25-2.62-4.03 1.25-9.19 4.18-12.1 6.87-2.25 2.09-2.6 2.93-1.68 4.04 1.34 1.62 4.63 2.46 7.52 1.92 1.1-.204 2.57-.377 3.26-.384zm-64.3-5c-.944-1.53 6.92-16.7 12.4-24.1 6.1-8.11 11.3-11.9 16.3-11.9 2.74 0 3.7.419 3.7 1.62 0 3.22-27.8 35.4-30.5 35.4-.738 0-1.62-.445-1.95-.99zm19.2-21c5.72-6.87 9.91-12.7 9.32-12.9-3.65-1.22-15.4 11.7-21.2 23.3-2.75 5.48-2.82 5.83-.759 4.01 1.24-1.1 6.94-7.62 12.7-14.5zm185 37.5c-3.9-2.74-5.09-12.3-2.58-20.8.304-1.04-4.09 3.13-9.77 9.25-9.73 10.5-10.5 11.1-14.2 11.1-4.82 0-10.1-2.41-12.1-5.57l-1.57-2.4-4.56 3.48c-4.11 3.13-5.2 3.48-10.9 3.48-5.67 0-6.57-.283-8.42-2.63-1.67-2.13-2.07-4.06-2.07-10 0-8.84 2.24-16.5 9.14-31.2 2.68-5.73 4.69-10.6 4.46-10.8s-2.31-.0421-4.62.415c-4.04.799-4.29 1.07-6.44 7.01-5.33 14.7-21.2 36-33 44-4.45 3.06-5.5 3.35-11 3.09-5.65-.274-6.2-.521-8.43-3.79-2.1-3.09-2.32-4.27-1.83-10 .645-7.49 1.69-10.4 12.2-33.5 4.23-9.35 10.8-24.1 14.5-32.8l6.84-15.8-38.7.347c-36.7.329-39 .456-43.9 2.47-2.88 1.17-6.63 3.29-8.33 4.73-4.16 3.5-8.67 3.53-9.54.0477-.85-3.39.134-9.08 2.08-12.1 2.1-3.2 7.94-6.74 13.8-8.35 5.12-1.41 23-1.09 48.7.875 7.42.566 19.5 1.15 26.9 1.31l13.4.277 3.16-9.5c2.79-8.37 3.46-9.53 5.64-9.77 5.84-.638 14.4 8.21 14.4 15l.0448 4 11.2-.689 11.2-.689v2.99c-4e-5 7.46-3.2 9.15-17.3 9.15h-10.4l-4.44 9.25-4.44 9.25 4.76-.347c4.63-.338 4.8-.249 6.25 3.22.819 1.96 1.49 5.15 1.49 7.1 0 1.94.112 3.53.25 3.52.138-.004 3.18-.901 6.75-1.99s7.67-1.99 9.11-1.99c4.78-.014 13.8 7.35 13.9 11.3.0122.992-4.01 9.54-8.93 19-4.92 9.46-9.69 19-10.6 21.2l-1.64 4 4.96-4.83c2.92-2.84 5.5-6.49 6.29-8.87 3.45-10.5 18.1-29.7 27.1-35.8 8.36-5.58 11.6-5.39 20 1.15 3.96 3.1 4.23 3 5.29-1.92 1.09-5.07 5.22-4.53 11.5 1.5 7.42 7.16 7.4 7.55-1.26 25.9-8.64 18.3-10.9 23.5-10.3 24.1.228.228 3.99-3.22 8.36-7.65 5.87-5.95 8.63-8.07 10.5-8.07 3.13 0 4.36 2.9 2.64 6.21-1.98 3.81-11.8 15.5-15.2 18.1-7.63 5.8-15.8 7.47-20.5 4.2zm16.4-4.8c4.62-3.18 17.4-17.6 17.4-19.7 0-2.45-3.02-.303-11.3 8.03-8.2 8.28-12.7 11-12.7 7.73 0-2.22 5.6-15.8 12.5-30.1 4.53-9.48 6.47-14.6 6.09-16.2-.642-2.56-9.38-10.7-10.7-9.87-.462.285-1.14 2.11-1.5 4.06s-1.3 3.79-2.07 4.09c-.775.297-4.13-1.37-7.45-3.7-7.29-5.11-10.4-5.03-17.9.482-6.62 4.86-18 20.1-23 30.7-3.27 6.97-5.28 9.78-10.2 14.3-3.39 3.06-6.53 5.57-6.98 5.57-2.79 0 .0692-7.89 9.72-26.8 7.12-14 10.4-21.4 10-22.8-.648-2.58-7.37-7.41-10.3-7.41-1.18 0-4.74.675-7.91 1.5s-7.01 1.5-8.55 1.5c-2.7 0-2.79-.175-2.81-5.25-.008-2.89-.371-5.81-.806-6.5-.959-1.51-4.55-1.85-8.93-.842-2.07.475-3.25.366-3.25-.3 0-.575 2.23-5.9 4.96-11.8l4.96-10.8 11.3-.598c6.21-.329 12.1-.944 13.1-1.37 1.68-.726 3.72-3.54 3.72-5.12 0-.394-5.41-.41-12-.0367l-12 .679.62-3.88c.807-5.05-1.38-9.29-6.8-13.2-4.9-3.55-4.79-3.65-8.4 7.76-1.43 4.52-3.18 8.7-3.89 9.29-1.33 1.1-39.3-.714-65-3.11-24.5-2.27-38.5 3.1-38.5 14.7 0 2.4.376 4.37.836 4.37s2.82-1.54 5.25-3.42c8.66-6.7 11.7-7.09 55.1-7.04 21.3.0234 39 .353 39.4.733.802.802-4.84 14.3-18.9 45.2-13 28.6-14.8 33.4-14.8 39.8 0 6.37 1.88 9.4 6.37 10.2 5.6 1.05 10.4-1.83 20.7-12.5 10.2-10.6 17-20.8 21.5-32.5 1.5-3.85 3.23-7.51 3.84-8.14.608-.629 4.14-1.45 7.86-1.83 5.72-.582 6.75-.451 6.75.86 0 .851-2.42 6.4-5.37 12.3-7.26 14.6-10 23.2-10.1 31.4-.0321 5.17.382 7.11 1.86 8.75 3.58 3.96 12.8 1.82 18.5-4.29 3.15-3.38 4.55-3.28 6.1.45 1.49 3.59 5.55 5.95 10.2 5.95 3.01 0 4.51-1.27 14.8-12.5 6.3-6.88 11.6-13 11.8-13.5.483-1.44 3.17-1.22 3.15.257-.007.688-.907 4.1-2 7.59-2.95 9.42-2.41 16.8 1.41 19.4 2.87 1.92 9.44.728 14.2-2.57zm-119-8.13c.636-3.92 6.22-17.3 14.5-34.9 5.34-11.3 5.7-11.8 8.15-11.2 1.41.372 4.7.902 7.31 1.18 5.95.628 6.06 1.75 1.12 11.6-6 11.9-10.2 17.8-19.7 27.5-9.93 10.2-12.3 11.3-11.4 5.78zm21.1-21.5c3.72-5.57 10.6-18.1 10.6-19.3 0-.218-1.69-.633-3.75-.922-2.06-.289-4.38-.685-5.16-.882-1.34-.341-8.41 13.8-17 34.2l-3.14 7.41 7.08-7c3.89-3.85 9.04-9.93 11.4-13.5zm59.6 16.9c0-3.08 8.33-18.7 13-24.3 6.62-8 10.7-10.8 15.5-10.4 2.27.167 4.05.815 4.05 1.47 0 1.16-4.64 7.08-17.8 22.7-10.2 12.1-14.7 15.3-14.7 10.5zm12.1-12c5.15-6.12 11.1-13.1 13.2-15.6 2.09-2.47 3.59-4.71 3.33-4.97-1.59-1.59-9.54 4.75-14.9 11.9-2.49 3.31-11.8 19.8-11.2 19.8.18 0 4.54-5 9.68-11.1zm-61.1-34.3c-.974-1.17-.847-2.23.628-5.25 3.37-6.9 7.89-3.58 5.91 4.34-.691 2.75-4.56 3.29-6.53.91zm4.19-3.53c.242-1.65.309-3 .149-3-.83 0-2.37 4.18-1.85 5.02.947 1.53 1.23 1.2 1.7-2.02z"/>
</svg>
