<svg xmlns="http://www.w3.org/2000/svg" width="622" height="187" version="1">
  <path d="m 397.86626,183.89258 c -4.13234,-7.26474 -26.49648,-20.41104 -45.0769,-26.49753 -9.31324,-3.05079 -25.88981,-7.00548 -34.28936,-8.18044 -18.69177,-2.61468 -25.40097,-2.9005 -68.5,-2.91817 -50.59246,-0.0207 -64.68788,0.7494 -93.33235,5.09953 -18.85152,2.86291 -39.99012,0.94959 -58.63246,-5.30701 -23.30207,-7.82046 -51.718367,-27.76277 -57.974348,-40.68591 -1.882872,-3.88949 -2.204755,-5.764977 -1.709194,-9.958797 0.534026,-4.51936 -0.128823,-3.32687 -5.289204,9.515507 -3.284823,8.17477 -6.01658,16.59607 -6.163349,19 -0.144983,2.37469 -0.454736,4.88011 -0.688339,5.56761 -0.733575,2.15893 -4.005958,1.36871 -7.67596,-1.85359 C 15.332099,124.86177 15,124.07737 15,119.32472 15,111.7831 22.947063,85.593313 34.394875,55.408313 35.827694,51.630333 37,48.371473 37,48.166413 c 0,-0.20507 -1.6875,0.26804 -3.75,1.05134 C 22.136425,53.438503 0,54.096133 0,50.205543 c 0,-1.92605 0.699696,-2.16499 11.365616,-3.88131 10.272812,-1.65306 16.259615,-4.12566 24.738732,-10.21729 C 42.99247,31.158313 49,21.898653 49,16.230323 c 0,-3.013113 -0.03912,-3.013205 5.934592,0.0139 9.607838,4.86866 11.383588,10.99045 6.181878,21.31166 -2.4431,4.84758 -19.282128,44.67735 -20.809608,49.22148 -0.277318,0.825 0.862145,-0.79746 2.532139,-3.60546 3.580872,-6.02103 15.884749,-17.75001 29.110089,-27.74992 18.68952,-14.13146 33.04015,-29.58405 38.10249,-41.028309 2.24343,-5.0716561 2.7332,-5.2960861 6.87896,-3.152226 5.37958,2.781895 8.06946,7.116215 8.06946,13.002645 0,4.69404 -0.50464,5.99877 -4.33007,11.19525 -5.1119,6.94403 -16.63418,16.71142 -29.16993,24.72725 -4.95,3.16521 -11.94135,7.635 -15.53633,9.93285 -15.9555,10.19852 -24.100753,18.56126 -25.537408,26.21929 -1.598156,8.518907 9.022018,20.111287 27.613548,30.141397 15.3363,8.27391 24.2809,11.06236 41.79588,13.02975 13.31701,1.49584 15.61918,1.48889 32.39801,-0.0978 9.93427,-0.93943 22.38321,-2.37282 27.66431,-3.1853 9.42435,-1.44992 18.67274,-2.8521 40.60199,-6.1558 8.86476,-1.3355 19.24977,-1.66848 53.5,-1.7154 45.88482,-0.0629 48.79134,0.19806 74,6.64288 7.21756,1.84523 24.40216,9.2158 31.97201,13.71296 13.53006,8.03806 23.98644,20.21483 24.01822,27.96992 0.0149,3.62638 -2.167,10.11683 -3.39852,10.1097 -0.60044,-0.003 -1.82689,-1.29879 -2.72545,-2.87847 z M 331.4075,127.2572 c -1.70087,-0.74637 -4.43266,-2.88339 -6.07063,-4.74894 l -2.97813,-3.3919 -3.40115,2.3305 c -4.02773,2.75985 -12.39641,3.18919 -16.88813,0.86643 -5.96149,-3.08281 -11.60177,-12.1718 -12.82411,-20.66534 l -0.7477,-5.195487 -5.50755,13.412457 c -5.37332,13.08553 -5.58687,13.42011 -8.76145,13.72675 -2.52442,0.24384 -3.92362,-0.35543 -6.24127,-2.67308 C 266.34432,119.27554 265,116.95604 265,115.76416 c 0,-1.91642 -0.50781,-1.68309 -4.39057,2.01742 -6.02783,5.74489 -10.02509,7.99579 -14.19934,7.99579 -4.58757,0 -7.03174,-1.36768 -8.89974,-4.97998 -2.13628,-4.13111 -1.8822,-8.71873 0.95115,-17.17423 l 2.46151,-7.345787 -5.64634,6.499997 c -3.10549,3.575 -8.90535,9.7625 -12.88858,13.75 -6.86173,6.86909 -7.48044,7.25 -11.7762,7.25 -5.49724,0 -8.35744,-2.55658 -9.27421,-8.28972 l -0.61805,-3.86507 -5.10981,4.96281 c -6.45717,6.27141 -8.30952,7.19198 -14.4715,7.19198 -4.20312,0 -5.32109,-0.4169 -7.06574,-2.63486 -4.89112,-6.21806 -1.48475,-21.886237 9.37785,-43.134997 3.65229,-7.14438 4.76306,-10.13366 3.64982,-9.82233 -0.88014,0.24614 -3.94079,0.74428 -6.80145,1.10698 -4.90628,0.62207 -5.2676,0.86716 -6.37204,4.32234 -1.59665,4.99502 -8.47149,18.64228 -11.88996,23.60277 -4.1983,6.092117 -19.72058,22.246447 -24.60531,25.607237 -7.51282,5.16895 -15.0766,3.58824 -17.46544,-3.65001 -1.32056,-4.00134 -0.15404,-12.2932 2.69322,-19.14395 1.42663,-3.432607 1.02217,-3.155277 -4.73535,3.24682 -3.46237,3.85 -9.33364,10.0375 -13.04726,13.75 -6.28387,6.28198 -7.05628,6.75 -11.14003,6.75 -10.97085,0 -12.54683,-12.30753 -3.96856,-30.992037 1.39082,-3.02938 5.08709,-12.23299 8.21392,-20.45248 3.12683,-8.21949 6.13318,-15.09387 6.68079,-15.27641 1.46204,-0.48734 10.15346,7.4649 11.94477,10.9289 1.51476,2.92924 1.39735,3.27569 -7.03353,20.75241 -8.48568,17.590317 -9.42366,20.039617 -7.67436,20.039617 1.05736,0 9.21086,-8.791167 16.69435,-17.999997 2.9052,-3.575 7.79498,-9.58005 10.86618,-13.34456 4.02446,-4.93296 6.04254,-8.49387 7.22585,-12.75 1.15908,-4.16898 2.12881,-5.90544 3.29791,-5.90544 2.47251,0 9.52263,6.44043 11.41461,10.42747 l 1.65778,3.49351 -5.59666,11.15941 c -6.35422,12.66997 -14.83551,32.877107 -14.10549,33.607127 1.23221,1.23221 17.38741,-15.96414 23.19959,-24.694707 C 161.63814,85.132873 168,73.246773 168,71.384783 c 0,-0.18456 -2.10461,-0.62403 -4.67692,-0.9766 C 157.27924,69.579773 155,67.488173 155,62.770273 c 0,-7.24084 8.29191,-14.94092 16.12756,-14.97645 4.83587,-0.0219 6.37244,2.05987 6.37244,8.6336 0,2.93922 0.45,5.34989 1,5.35704 0.55,0.007 4.86821,-0.96081 9.59602,-2.15102 l 8.59603,-2.16403 4.71709,3.24544 c 6.6518,4.57657 7.63618,7.17871 4.70059,12.42572 -5.52403,9.87351 -18.9764,37.386817 -19.56757,40.020327 -0.57772,2.57362 0.30499,2.01318 8.21302,-5.21446 8.48981,-7.75937 9.0562,-8.548997 13.54489,-18.883527 2.57651,-5.93205 6.41943,-15.51054 8.5398,-21.28554 2.12038,-5.775 4.35325,-10.5 4.96194,-10.5 1.87464,0 10.10964,7.42808 11.74852,10.59733 1.52688,2.95265 1.42189,3.26544 -7.0001,20.85496 C 221.8476,98.551203 218,107.07984 218,107.68219 c 0,3.1719 4.55877,-1.2235 18.02221,-17.376337 13.78082,-16.53361 16.04952,-19.83697 17.70427,-25.77848 1.12534,-4.04058 2.09375,-5.75 3.25747,-5.75 2.45174,0 9.51612,6.42671 11.37853,10.35144 l 1.6217,3.41747 -7.42702,15.36555 c -8.53164,17.650867 -12.95974,28.865537 -11.39751,28.865537 2.16997,0 16.42262,-14.95588 17.74948,-18.625247 0.73455,-2.03137 6.20365,-14.69992 12.15355,-28.15234 8.41455,-19.02485 10.2542,-23.93278 8.28034,-22.09068 -1.39571,1.30255 -3.41803,4.08521 -4.49404,6.1837 -2.50062,4.87681 -4.26714,4.27633 -4.65122,-1.58104 -0.53164,-8.10786 5.66815,-16.44784 13.50689,-18.16952 2.54293,-0.55852 3.42246,-1.44157 4.36472,-4.38217 2.23581,-6.97752 8.09051,-17.691429 11.71558,-21.4391341 6.6911,-6.917467 18.63224,-9.524424 28.39285,-6.19865 13.34117,4.545793 14.29317,18.5031141 1.92869,28.2766741 -4.83802,3.82423 -16.75869,9.14083 -23.89006,10.65492 -2.92305,0.6206 -3.77397,1.67359 -7.75,9.59034 -2.45654,4.89125 -4.46643,9.13873 -4.46643,9.43885 0,0.30011 1.4625,-0.22678 3.25,-1.17088 4.65658,-2.45945 13.28121,-2.34028 18.25,0.25217 5.60672,2.92528 8.5,7.54024 8.5,13.55801 0,4.16886 -0.50839,5.41196 -3.62343,8.85995 -3.7005,4.096 -11.74557,8.48443 -21.12657,11.52412 -5.0896,1.64917 -5.25,1.81497 -5.25,5.4271 0,4.826077 2.38823,12.710347 4.58558,15.138387 0.94842,1.04799 2.57222,1.90544 3.60845,1.90544 1.03622,0 6.59308,-4.30302 12.34856,-9.56226 6.08341,-5.55889 11.19569,-9.466257 12.21096,-9.332967 1.88525,0.2475 10.24645,-2.94277 10.24645,-3.9096 0,-0.32322 -1.21142,-2.33575 -2.69204,-4.47228 -6.09731,-8.79842 -3.42834,-22.73294 6.19796,-32.35924 6.11517,-6.11518 12.18926,-8.36365 22.59379,-8.36365 11.44648,0 12.68713,1.76871 5.15029,7.34243 -6.8152,5.04004 -13.72842,12.46472 -16.34434,17.55354 -2.43834,4.74336 -2.45527,4.32512 1.11734,27.604027 2.18825,14.25852 -2.29284,23.74176 -12.92222,27.34705 -4.51152,1.53022 -14.83122,1.32749 -18.69328,-0.36722 z m 15.4974,-12.81932 c 2.42897,-2.00643 4.04294,-7.2071 3.42273,-11.029 -0.32412,-1.99733 -0.8036,-3.631507 -1.06551,-3.631507 -0.2619,0 -3.3185,1.356507 -6.79243,3.014467 -6.26469,2.98985 -11.89034,8.20084 -11.18595,10.36142 1.04678,3.21081 12.1809,4.12644 15.62116,1.28462 z M 300.38094,83.238413 c 10.88636,-5.30842 17.491,-12.50056 14.63719,-15.93919 -1.68424,-2.02939 -6.03503,-0.80824 -13.36152,3.75023 -2.99403,1.86285 -4.46511,3.86496 -6.6567,9.05962 -1.54732,3.66756 -2.60254,6.6683 -2.34494,6.6683 0.2576,0 3.73429,-1.59253 7.72597,-3.53896 z M 171.57999,59.202673 c 0.94929,-5.06014 -0.93795,-6.56756 -3.06725,-2.44995 -1.80762,3.49557 -1.42538,6.02465 0.91056,6.02465 0.91255,0 1.74489,-1.37959 2.15669,-3.5747 z m 156.72556,-35.9253 c 6.29786,-4.43814 8.66349,-8.820815 6.72066,-12.451031 -2.55127,-4.7670921 -6.99571,-1.0430441 -12.99475,10.888461 -4.64089,9.23026 -4.61557,9.23657 6.27409,1.56257 z M 434.40743,126.8146 c -2.25092,-1.00183 -5.0121,-2.99048 -6.13596,-4.41924 -1.8164,-2.30918 -2.18747,-2.42413 -3.34053,-1.03478 -2.09762,2.52747 -8.58835,5.41679 -12.1686,5.41679 -9.34125,0 -12.10886,-10.17406 -6.66428,-24.49867 1.04551,-2.750727 1.90116,-5.150567 1.90144,-5.332977 2.7e-4,-0.18241 -1.912,1.88657 -4.2495,4.597727 -2.3375,2.71117 -8.06707,9.04791 -12.73238,14.08166 -9.3002,10.03466 -10.91771,10.7171 -17.73455,7.4823 -5.26378,-2.49783 -7.51144,-6.70631 -6.92832,-12.97251 1.3023,-13.994547 17.5911,-38.746097 31.09103,-47.244197 6.09612,-3.83746 8.18756,-3.88426 13.15418,-0.29437 2.14502,1.55043 5.12079,3.61621 6.61282,4.59063 l 2.71279,1.77166 1.15593,-4.59063 c 1.51754,-6.02672 3.48152,-5.98208 9.92182,0.22554 3.52781,3.40036 4.99668,5.59546 4.99668,7.46711 0,1.45801 -2.9733,8.85324 -6.60734,16.43383 -7.01978,14.643257 -12.8454,29.282897 -11.65268,29.282897 0.39543,0 4.7782,-4.08469 9.73949,-9.0771 7.2935,-7.33923 10.41009,-9.703497 16.27837,-12.348897 l 7.25784,-3.27181 -2.46377,-3.63055 c -7.17607,-10.57453 -4.53365,-23.98138 6.78248,-34.41222 5.4563,-5.02944 12.28336,-7.25942 22.22467,-7.25942 10.01749,0 11.12171,1.55191 4.73884,6.66019 -7.62592,6.10311 -14.03636,12.90682 -16.25113,17.24813 -2.42094,4.74545 -2.51838,8.50882 -0.53312,20.59168 1.7236,10.490287 1.88341,18.530397 0.46951,23.620567 -1.19857,4.31495 -6.5762,9.86252 -11.17582,11.529 -5.04123,1.82647 -15.6348,1.50849 -20.39991,-0.61234 z m 12.57085,-10.68289 c 4.08403,-0.8168 7.0129,-5.38151 7.01798,-10.93767 0.002,-2.24584 -0.26256,-4.34964 -0.58805,-4.67512 -0.80437,-0.804367 -9.06007,2.78775 -13.62716,5.92928 -7.09324,4.87919 -5.90617,9.13378 2.84395,10.19299 0.61875,0.0749 2.57772,-0.15436 4.35328,-0.50948 z M 404.03542,89.317913 c 5.95304,-7.1277 10.60385,-13.3152 10.33513,-13.75 -0.97363,-1.57537 -4.8454,-0.73347 -8.60327,1.87073 -2.11212,1.4637 -5.90013,5.4012 -8.4178,8.75 C 392.79661,92.244503 385,106.61957 385,108.95812 c 0,1.94115 7.30994,-5.60105 19.03542,-19.640207 z m 184.21577,35.922847 c -4.61654,-3.23356 -4.97629,-14.00554 -0.80143,-23.99738 2.15007,-5.145857 2.00502,-5.199577 -1.78635,-0.6616 -1.83512,2.1965 -7.55822,8.53908 -12.71799,14.09461 -7.93118,8.53952 -9.85252,10.10098 -12.42902,10.10098 -4.31041,0 -9.5667,-3.10415 -11.56471,-6.82965 -1.54842,-2.88721 -1.82747,-3.02378 -3.07726,-1.50602 -0.75594,0.91802 -3.12945,2.94409 -5.27447,4.50239 -3.11153,2.26045 -4.96701,2.83328 -9.17742,2.83328 -4.51017,0 -5.57869,-0.38305 -7.34996,-2.63486 -4.83228,-6.14325 -1.81418,-21.302947 8.34468,-41.914747 2.9684,-6.02271 5.32636,-10.98519 5.23991,-11.02772 -4.57,0.617139 -8.02612,1.253268 -12.8995,2.07733 l -2.23043,6.18784 c -1.22675,3.40331 -4.20972,9.67133 -6.62884,13.92893 -5.17857,9.11416 -19.32512,25.285547 -26.32456,30.092457 -4.25227,2.92027 -5.61564,3.34256 -9.96628,3.08692 -4.49468,-0.2641 -5.29774,-0.67492 -7.42068,-3.79615 -2.03465,-2.99142 -2.29865,-4.2992 -1.81687,-9 0.63866,-6.23152 2.50637,-11.238517 12.12315,-32.499997 3.73155,-8.25 10.28102,-23.01902 14.55438,-32.82005 l 7.76973,-17.82006 -40.15863,0.34153 c -38.21964,0.32504 -40.41138,0.44421 -45.39308,2.46807 -2.87894,1.1696 -6.62597,3.29743 -8.32673,4.72852 -3.96204,3.33384 -6.70771,3.37104 -7.52819,0.10199 -1.95226,-7.77843 4.55517,-15.35082 15.86459,-18.46088 5.09,-1.39973 20.50068,-1.10397 46.72477,0.89675 7.425,0.56647 19.96567,1.15014 27.86814,1.29704 l 14.36815,0.26709 2.95629,-9 c 1.62595,-4.9500001 3.34775,-9.40246412 3.82622,-9.89436512 1.37977,-1.41851998 6.6772,1.28409602 10.05279,5.12868202 4.09762,4.6669271 5.2488,7.9078521 4.04029,11.3745931 -0.70902,2.03388 -0.65285,2.67697 0.2108,2.41381 0.64753,-0.1973 6.01482,-0.63483 11.92732,-0.97228 10.20081,-0.58221 10.75,-0.51395 10.75,1.33621 0,6.31519 -3.83139,8.11335 -17.2873,8.11335 h -10.38661 l -5.10657,11.00496 c -3.90939,8.42498 -4.66634,10.76936 -3.22878,10 1.03278,-0.55273 3.50532,-1.00496 5.49455,-1.00496 3.22589,0 3.78395,0.40013 5.16373,3.70242 0.89599,2.1444 1.32178,5.09007 1.01185,7 -0.65022,4.00678 0.11724,4.11341 9.33913,1.29758 8.41674,-2.56998 8.8406,-2.54084 14.14491,0.97259 8.3075,5.50266 8.33106,5.2572 -2.50915,26.13756 -9.00965,17.354347 -13.16062,26.698327 -12.26038,27.598557 0.2182,0.2182 3.06732,-2.07577 6.33138,-5.09771 4.0099,-3.71246 6.38184,-6.84944 7.31349,-9.672347 1.82389,-5.52646 8.41217,-16.10518 15.4714,-24.84225 6.01775,-7.44805 16.15707,-15.0964 20.01311,-15.0964 1.25227,0 4.46349,1.56697 7.13605,3.48216 8.61722,6.1752 8.17708,6.1267 9.45741,1.04206 0.79226,-3.14635 1.65734,-4.52422 2.8405,-4.52422 2.28332,0 9.74569,6.48903 11.61137,10.09686 1.45453,2.81275 1.27044,3.37845 -6.39425,19.64963 -8.64626,18.354927 -12.59569,28.253507 -11.27284,28.253507 0.47021,0 5.14385,-4.275 10.38586,-9.5 5.242,-5.225 10.20282,-9.499997 11.02404,-9.499997 4.64716,0 0.79818,7.526887 -9.10307,17.801557 -8.90515,9.241 -17.48582,12.48113 -22.93864,8.66183 z M 506.50754,92.654573 c 2.44675,-3.64254 6.04121,-9.94254 7.98768,-14 l 3.53904,-7.3772 c -3.57383,-0.381571 -7.03681,-1.075639 -10.37091,-2.43665 -0.58484,-0.58484 -1.37325,-1.06335 -1.75201,-1.06335 -1.24849,0 -20.91134,44.443037 -20.91134,47.264937 0,2.07626 16.87092,-15.485107 21.50754,-22.387737 z M 579,96.697843 c 4.675,-5.59019 10.39722,-12.42689 12.71604,-15.19267 4.447,-5.30417 4.6295,-6.7278 0.86245,-6.7278 -2.83886,0 -8.32466,4.26492 -13.42545,10.43759 C 575.32219,89.850823 566,106.47541 566,108.67125 c 0,2.31455 4.57522,-1.89936 13,-11.973407 z m -57.65701,-37.64664 c 0.75432,-4.64834 -0.58729,-6.19082 -2.72726,-3.13559 -2.46103,3.51361 -2.01208,6.86176 0.92009,6.86176 0.66137,0 1.4746,-1.67678 1.80717,-3.72617 z"/>
</svg>
