<svg xmlns="http://www.w3.org/2000/svg" width="622" height="187" version="1">
  <path fill="#fff" d="M398 184c-4-7-27-21-45-27a257 257 0 0 0-103-11c-51 0-65 1-93 5-19 3-40 1-59-5-23-8-52-28-58-41-2-3-2-5-2-10 1-4 0-3-5 10a104 104 0 0 0-7 25c-1 2-4 1-7-2-4-3-4-4-4-9a314 314 0 0 1 22-71l-4 1c-11 4-33 5-33 1 0-2 1-2 11-4 11-1 17-4 25-10 7-5 13-14 13-20 0-3 0-3 6 0 10 5 11 11 6 22a1313 1313 0 0 0-18 45c3-6 16-18 29-28 19-14 33-29 38-41 2-5 3-5 7-3 5 3 8 7 8 13 0 5-1 6-4 11-5 7-17 17-30 25L77 70C60 80 52 89 50 96c-1 9 9 20 28 30 15 9 24 12 42 13a627 627 0 0 0 101-9c8-1 19-2 53-2 46 0 49 1 74 7 7 2 24 9 32 14 14 8 24 20 24 28l-3 10-3-3zm-67-57l-6-4-3-4-3 2c-4 3-12 4-17 1-6-3-12-12-13-20l-1-6-5 14c-5 13-6 13-9 14l-6-3-3-5c0-2-1-2-4 2-6 6-10 8-15 8-4 0-7-2-8-5-3-4-2-9 0-17l3-8-6 7-13 14c-6 6-7 7-11 7-6 0-9-3-10-9v-3l-5 5c-7 6-9 7-15 7-4 0-5-1-7-3-5-6-1-22 9-43 4-7 5-10 4-10l-7 1c-5 1-5 1-6 5l-12 23c-4 6-20 22-25 26-7 5-15 3-17-4-1-4 0-12 3-19 1-3 1-3-5 3l-13 14c-6 6-7 7-11 7-11 0-13-13-4-31a484 484 0 0 0 15-36l12 11c1 3 1 3-7 21-9 17-10 20-8 20l17-18a10892 10892 0 0 1 18-26l3-6c2 0 10 6 11 10l2 4-6 11-14 33a105 105 0 0 0 35-46l-5-1c-6 0-8-3-8-7 0-7 8-15 16-15 5 0 6 2 6 8l2 6 9-2 9-3 4 4c7 4 8 7 5 12l-19 40c-1 3 0 2 8-5 8-8 9-9 13-19a481 481 0 0 0 14-32c2 0 10 8 12 11 1 3 1 3-7 21l-9 19c0 3 5-2 18-18 14-16 16-20 18-25 1-5 2-6 3-6 2 0 10 6 11 10l2 4-7 15c-9 18-13 29-12 29 2 0 17-15 18-19a1086 1086 0 0 1 20-50l-4 6c-3 5-4 4-5-1 0-9 6-17 14-19 2 0 3-1 4-4 2-7 8-18 12-21 6-7 18-10 28-7 14 5 14 19 2 29-5 3-17 9-24 10-3 1-4 2-8 10l-4 9 3-1c5-2 14-2 18 0 6 3 9 8 9 14 0 4-1 5-4 9s-11 8-21 11c-5 2-5 2-5 6 0 5 2 12 5 15l3 2 13-10 12-9 10-4-3-4c-6-9-3-23 7-33 6-6 12-8 22-8 12 0 13 2 5 7-7 5-13 13-16 18-3 4-3 4 1 27 2 15-2 24-13 28-4 1-15 1-19-1zm16-13c2-2 4-7 3-11l-1-3-7 3c-6 3-11 8-11 10 1 3 12 4 16 1zm-47-31c11-5 18-12 15-16-2-2-6-1-13 4-3 2-5 4-7 9l-2 7 7-4zM172 59c1-5-1-6-3-2-2 3-2 6 0 6l3-4zm156-36c7-4 9-9 7-12-3-5-7-1-13 11-5 9-5 9 6 1zm106 104l-6-5c-2-2-2-2-3-1-2 3-9 6-12 6-10 0-12-10-7-25l2-5-4 5-13 14c-9 10-11 10-18 7-5-2-7-7-7-13 2-14 18-39 31-47 7-4 9-4 14 0l6 4 3 2 1-5c2-6 4-6 10 1 4 3 5 5 5 7l-7 16c-7 15-12 30-11 30l9-9c8-8 11-10 17-13l7-3-2-4c-8-10-5-24 6-34 6-5 13-7 23-7s11 1 4 6c-7 7-14 13-16 18-2 4-2 8 0 20v24c-1 4-7 10-11 11-5 2-16 2-21 0zm13-11c4-1 7-5 7-11l-1-4c0-1-9 2-13 5-7 5-6 10 3 11l4-1zm-43-27l10-13c-1-2-4-1-8 1l-9 9-12 23c0 2 7-6 19-20zm184 36c-4-3-5-14-1-24a532 532 0 0 1-27 24c-4 0-9-3-11-7-2-3-2-3-3-2l-5 5c-4 2-5 3-10 3-4 0-5-1-7-3-5-6-2-21 8-42l6-11-13 2-2 6-7 14c-5 10-19 26-26 30-5 3-6 4-10 4-5-1-6-1-8-4s-2-5-2-9c1-6 3-11 12-33l15-33 8-17h-40c-39 0-41 0-46 2l-8 5c-4 4-7 4-8 0-2-8 5-15 16-18 5-2 21-1 47 1l28 1h14l3-9 4-10c1-1 7 2 10 6 4 4 5 7 4 11v2l12-1c10 0 11 0 11 2 0 6-4 8-17 8h-11l-5 11c-4 8-4 11-3 10l5-1c4 0 4 0 6 3l1 7c-1 4 0 5 9 2 8-3 9-3 14 1 8 5 8 5-2 26l-13 27c1 1 3-2 7-5s6-6 7-9c2-6 8-16 15-25 7-8 17-15 21-15l7 3c8 6 8 6 9 1l3-4c2 0 10 6 12 10 1 3 1 3-7 20l-11 28 10-10 11-9c5 0 1 7-9 18-9 9-17 12-23 8zm-81-32l7-14 4-8-10-2-2-1c-1 0-21 44-21 47 0 2 17-15 22-22zm72 4l13-15c4-6 4-7 1-7s-9 4-14 10c-4 5-13 21-13 24 0 2 5-2 13-12zm-58-38c1-5 0-6-2-3-3 3-2 7 1 7l1-4z"/>
</svg>
