<svg xmlns="http://www.w3.org/2000/svg" width="350" height="446" version="1">
  <path d="M68 0C54 0 30 12 8 20c-4 1-8 7-8 11 1 18 35 7 20 7-8-5 24-16 36-18l-3 25c-11 60 8 190 38 268-12 0-112 75-10 125 29 10 81 11 114 2 52-14 113-57 137-98 27-45 23-92-10-124-23-22-44-30-96-35-51-5-70-12-70-28 4-42 136-78 93-18-13 4-10 15 5 15 29-1 42-44 16-65-36-27-99-7-136 34-39 52 22 91 88 98 51 4 69 12 85 36 12 19 12 36-1 65-21 44-84 88-144 100-54 11-108-8-108-38 1-16 42-64 49-45 6 15 5 8 2 14-9 16-41 47-16 57 123 44 127-113 32-100l-18-82 32 16c52 28 133 45 133 28 0-6-12-12-94-50-16-7-37-19-46-27-24-21-23-40 3-76 20-26 79-77 96-83 8-2 12-16 4-16-62 19-100 70-146 110-7-4-10-75-5-103C84 6 79 0 68 0zm46 27c-37 3-34 54 1 53 37 1 40-52-1-53zm47 305c69 84-127 103-50 29 26 37 20-19 14-31 1-10 16-19 36 2z"/>
</svg>
